<?xml version="1.0" encoding="utf-8" ?><svg xmlns="http://www.w3.org/2000/svg" xmlns:xlink="http://www.w3.org/1999/xlink" width="19" height="19" viewBox="0 0 19 19"><path fill="#FF4D01" transform="scale(0.0185547 0.0185547)" d="M810.701 682.183L896.038 682.183L896.479 683.08L895.585 682.631L895.585 554.631Q895.585 523.228 864.245 515.394Q863.701 515.258 863.161 515.108Q787.763 494.164 673.348 468.721L673.348 468.721Q671.759 468.368 670.201 467.896Q668.643 467.424 667.125 466.836Q665.607 466.248 664.138 465.547Q662.669 464.846 661.256 464.036Q659.844 463.227 658.497 462.313Q657.15 461.399 655.876 460.386Q654.601 459.374 653.407 458.268Q652.212 457.162 651.105 455.969Q596.186 396.821 558.35 358.986L588.838 328.498L561.907 362.168Q536.376 341.748 512.035 341.748L213.368 341.748Q201.087 341.748 190.607 359.214L153.635 337.032L192.463 355.776L132.73 479.51L93.9019 460.765L134.687 474.748Q128.484 492.841 128.484 511.965L128.484 682.631Q128.484 682.183 128.035 682.183L213.368 682.183Q214.427 682.183 215.484 682.235Q216.541 682.287 217.594 682.391Q218.648 682.495 219.695 682.65Q220.742 682.805 221.78 683.012Q222.818 683.218 223.844 683.475Q224.871 683.733 225.884 684.04Q226.897 684.347 227.893 684.704Q228.89 685.06 229.868 685.465Q230.846 685.87 231.803 686.323Q232.759 686.775 233.693 687.274Q234.626 687.773 235.534 688.318Q236.442 688.862 237.322 689.45Q238.202 690.038 239.052 690.668Q239.902 691.299 240.721 691.97Q241.539 692.642 242.323 693.352Q243.107 694.063 243.856 694.812Q244.604 695.56 245.315 696.344Q246.026 697.129 246.697 697.947Q247.369 698.765 247.999 699.615Q248.63 700.465 249.218 701.345Q249.806 702.225 250.35 703.133Q250.894 704.041 251.393 704.974Q251.892 705.908 252.344 706.865Q252.797 707.822 253.202 708.799Q253.607 709.777 253.964 710.774Q254.32 711.771 254.627 712.783Q254.935 713.796 255.192 714.823Q255.449 715.85 255.655 716.888Q255.862 717.926 256.017 718.973Q256.173 720.02 256.276 721.073Q256.38 722.126 256.432 723.184Q256.484 724.241 256.484 725.299Q256.484 726.358 256.432 727.415Q256.38 728.472 256.276 729.525Q256.173 730.579 256.017 731.625Q255.862 732.672 255.656 733.711Q255.449 734.749 255.192 735.775Q254.935 736.802 254.627 737.815Q254.32 738.828 253.964 739.824Q253.607 740.821 253.202 741.799Q252.797 742.777 252.344 743.734Q251.892 744.69 251.393 745.624Q250.894 746.557 250.35 747.465Q249.806 748.373 249.218 749.253Q248.63 750.133 247.999 750.983Q247.369 751.833 246.697 752.651Q246.026 753.47 245.315 754.254Q244.604 755.038 243.856 755.787Q243.107 756.535 242.323 757.246Q241.539 757.957 240.721 758.628Q239.902 759.3 239.052 759.93Q238.202 760.561 237.322 761.149Q236.442 761.737 235.534 762.281Q234.626 762.825 233.693 763.324Q232.759 763.823 231.803 764.275Q230.846 764.728 229.868 765.133Q228.89 765.538 227.893 765.895Q226.897 766.251 225.884 766.558Q224.871 766.866 223.844 767.123Q222.818 767.38 221.78 767.586Q220.742 767.793 219.695 767.948Q218.648 768.104 217.594 768.207Q216.541 768.311 215.484 768.363Q214.427 768.415 213.368 768.415L128.035 768.415Q90.9754 768.415 66.6133 744.052Q42.2524 719.689 42.2524 682.631L42.2524 511.965Q42.2524 478.47 53.1166 446.782Q53.9529 444.343 55.0739 442.02L114.807 318.287Q115.657 316.526 116.663 314.849Q152.263 255.516 213.368 255.516L512.035 255.516Q566.62 255.516 615.769 294.828Q617.635 296.321 619.325 298.011Q658.292 336.977 714.297 397.295L682.701 426.632L692.054 384.543L692.066 384.545Q808.676 410.477 886.24 432.022L874.701 473.565L885.157 431.736Q981.816 455.898 981.817 554.631L981.817 682.631Q981.817 768.415 896.038 768.415L810.701 768.415Q809.642 768.415 808.585 768.363Q807.528 768.311 806.475 768.207Q805.421 768.104 804.374 767.948Q803.327 767.793 802.289 767.586Q801.251 767.38 800.225 767.123Q799.198 766.866 798.185 766.558Q797.172 766.251 796.175 765.895Q795.179 765.538 794.201 765.133Q793.223 764.728 792.266 764.275Q791.31 763.823 790.376 763.324Q789.443 762.825 788.535 762.281Q787.627 761.737 786.747 761.149Q785.867 760.561 785.017 759.93Q784.167 759.3 783.348 758.628Q782.53 757.957 781.746 757.246Q780.962 756.535 780.213 755.787Q779.465 755.038 778.754 754.254Q778.043 753.47 777.372 752.651Q776.7 751.833 776.07 750.983Q775.439 750.133 774.851 749.253Q774.263 748.373 773.719 747.465Q773.175 746.557 772.676 745.624Q772.177 744.69 771.725 743.733Q771.272 742.777 770.867 741.799Q770.462 740.821 770.105 739.824Q769.749 738.828 769.442 737.815Q769.134 736.802 768.877 735.775Q768.62 734.749 768.413 733.711Q768.207 732.672 768.052 731.625Q767.896 730.579 767.793 729.525Q767.689 728.472 767.637 727.415Q767.585 726.358 767.585 725.299Q767.585 724.241 767.637 723.184Q767.689 722.126 767.793 721.073Q767.896 720.02 768.052 718.973Q768.207 717.926 768.413 716.888Q768.62 715.85 768.877 714.823Q769.134 713.796 769.442 712.783Q769.749 711.77 770.105 710.774Q770.462 709.777 770.867 708.799Q771.272 707.822 771.725 706.865Q772.177 705.908 772.676 704.974Q773.175 704.041 773.719 703.133Q774.263 702.225 774.851 701.345Q775.439 700.465 776.07 699.615Q776.7 698.765 777.372 697.947Q778.043 697.129 778.754 696.344Q779.465 695.56 780.213 694.812Q780.962 694.063 781.746 693.352Q782.53 692.642 783.348 691.97Q784.167 691.299 785.017 690.668Q785.867 690.038 786.747 689.45Q787.627 688.862 788.535 688.318Q789.443 687.773 790.376 687.274Q791.31 686.775 792.266 686.323Q793.223 685.87 794.201 685.465Q795.179 685.06 796.175 684.704Q797.172 684.347 798.185 684.04Q799.198 683.733 800.224 683.475Q801.251 683.218 802.289 683.012Q803.327 682.805 804.374 682.65Q805.421 682.495 806.475 682.391Q807.528 682.287 808.585 682.235Q809.642 682.183 810.701 682.183Z"/><path fill="#FF4D01" transform="scale(0.0185547 0.0185547)" d="M298.702 767.553Q340.919 767.553 340.919 725.332Q340.919 683.116 298.702 683.116Q256.484 683.116 256.484 725.332Q256.484 767.553 298.702 767.553ZM298.702 853.784Q245.496 853.784 207.874 816.161Q170.252 778.538 170.252 725.332Q170.252 596.884 298.702 596.884Q351.907 596.884 389.529 634.506Q427.151 672.128 427.151 725.332Q427.151 778.538 389.53 816.161Q351.908 853.784 298.702 853.784Z"/><path fill="#FF4D01" transform="scale(0.0185547 0.0185547)" d="M384 682.253L640 682.253Q641.058 682.253 642.116 682.305Q643.173 682.357 644.226 682.461Q645.279 682.565 646.326 682.72Q647.373 682.875 648.411 683.082Q649.45 683.288 650.476 683.546Q651.503 683.803 652.516 684.11Q653.529 684.417 654.525 684.774Q655.522 685.13 656.5 685.535Q657.478 685.94 658.434 686.393Q659.391 686.846 660.325 687.345Q661.258 687.844 662.166 688.388Q663.074 688.932 663.954 689.52Q664.834 690.108 665.684 690.738Q666.534 691.369 667.352 692.04Q668.171 692.712 668.955 693.423Q669.739 694.133 670.487 694.882Q671.236 695.63 671.947 696.414Q672.657 697.199 673.329 698.017Q674 698.835 674.631 699.685Q675.261 700.535 675.849 701.415Q676.437 702.295 676.982 703.203Q677.526 704.111 678.025 705.045Q678.524 705.978 678.976 706.935Q679.429 707.892 679.834 708.87Q680.239 709.847 680.595 710.844Q680.952 711.841 681.259 712.853Q681.566 713.866 681.824 714.893Q682.081 715.92 682.287 716.958Q682.494 717.996 682.649 719.043Q682.804 720.09 682.908 721.143Q683.012 722.197 683.064 723.254Q683.116 724.311 683.116 725.369Q683.116 726.428 683.064 727.485Q683.012 728.542 682.908 729.595Q682.804 730.649 682.649 731.696Q682.494 732.743 682.287 733.781Q682.081 734.819 681.824 735.846Q681.566 736.872 681.259 737.885Q680.952 738.898 680.595 739.894Q680.239 740.891 679.834 741.869Q679.429 742.847 678.976 743.804Q678.524 744.76 678.025 745.694Q677.526 746.627 676.982 747.535Q676.437 748.443 675.849 749.323Q675.261 750.203 674.631 751.053Q674 751.903 673.329 752.722Q672.657 753.54 671.947 754.324Q671.236 755.108 670.487 755.857Q669.739 756.605 668.955 757.316Q668.171 758.027 667.352 758.698Q666.534 759.37 665.684 760Q664.834 760.631 663.954 761.219Q663.074 761.807 662.166 762.351Q661.258 762.895 660.325 763.394Q659.391 763.893 658.434 764.345Q657.478 764.798 656.5 765.203Q655.522 765.608 654.525 765.965Q653.529 766.321 652.516 766.628Q651.503 766.936 650.476 767.193Q649.45 767.45 648.411 767.656Q647.373 767.863 646.326 768.018Q645.279 768.174 644.226 768.277Q643.173 768.381 642.116 768.433Q641.058 768.485 640 768.485L384 768.485Q382.942 768.485 381.884 768.433Q380.827 768.381 379.774 768.277Q378.721 768.174 377.674 768.018Q376.627 767.863 375.589 767.656Q374.55 767.45 373.524 767.193Q372.497 766.936 371.484 766.628Q370.471 766.321 369.475 765.965Q368.478 765.608 367.5 765.203Q366.522 764.798 365.566 764.345Q364.609 763.893 363.675 763.394Q362.742 762.895 361.834 762.351Q360.926 761.807 360.046 761.219Q359.166 760.631 358.316 760Q357.466 759.37 356.648 758.698Q355.829 758.027 355.045 757.316Q354.261 756.605 353.513 755.857Q352.764 755.108 352.053 754.324Q351.342 753.54 350.671 752.722Q350 751.903 349.369 751.053Q348.739 750.203 348.15 749.323Q347.562 748.443 347.018 747.535Q346.474 746.627 345.975 745.694Q345.476 744.76 345.024 743.804Q344.571 742.847 344.166 741.869Q343.761 740.891 343.405 739.895Q343.048 738.898 342.741 737.885Q342.433 736.872 342.176 735.846Q341.919 734.819 341.713 733.781Q341.506 732.743 341.351 731.696Q341.196 730.649 341.092 729.595Q340.988 728.542 340.936 727.485Q340.884 726.428 340.884 725.369Q340.884 724.311 340.936 723.254Q340.988 722.197 341.092 721.143Q341.196 720.09 341.351 719.043Q341.506 717.996 341.713 716.958Q341.919 715.92 342.176 714.893Q342.434 713.866 342.741 712.853Q343.048 711.841 343.405 710.844Q343.761 709.847 344.166 708.87Q344.571 707.892 345.024 706.935Q345.476 705.978 345.975 705.045Q346.474 704.111 347.018 703.203Q347.562 702.295 348.15 701.415Q348.739 700.535 349.369 699.685Q350 698.835 350.671 698.017Q351.342 697.199 352.053 696.414Q352.764 695.63 353.513 694.882Q354.261 694.133 355.045 693.423Q355.829 692.712 356.648 692.04Q357.466 691.369 358.316 690.738Q359.166 690.108 360.046 689.52Q360.926 688.932 361.834 688.388Q362.742 687.843 363.675 687.345Q364.609 686.846 365.566 686.393Q366.522 685.94 367.5 685.535Q368.478 685.13 369.475 684.774Q370.471 684.417 371.484 684.11Q372.497 683.803 373.524 683.546Q374.55 683.288 375.589 683.082Q376.627 682.875 377.674 682.72Q378.721 682.565 379.774 682.461Q380.827 682.357 381.884 682.305Q382.942 682.253 384 682.253Z"/><path fill="#FF4D01" transform="scale(0.0185547 0.0185547)" d="M725.332 767.553Q767.553 767.553 767.553 725.332Q767.553 683.116 725.332 683.116Q683.116 683.116 683.116 725.332Q683.116 767.553 725.332 767.553ZM725.332 853.784Q672.127 853.784 634.506 816.161Q596.884 778.538 596.884 725.332Q596.884 672.128 634.506 634.506Q672.128 596.884 725.332 596.884Q778.538 596.884 816.161 634.506Q853.784 672.127 853.784 725.332Q853.784 778.539 816.162 816.162Q778.539 853.784 725.332 853.784Z"/></svg>