<?xml version="1.0" encoding="utf-8" ?><svg xmlns="http://www.w3.org/2000/svg" xmlns:xlink="http://www.w3.org/1999/xlink" width="18" height="18" viewBox="0 0 18 18"><path fill="#FF4D01" transform="scale(0.0175781 0.0175781)" d="M503.801 70.1556C510.577 69.2621 517.435 70.3783 524.106 70.8994C555.805 73.3819 586.157 87.1761 609.228 108.975C624.326 123.24 631.445 135.656 641.739 153.434L667.381 198.582L713.36 279.32L842.48 504.853L936.293 668.668L965.881 720.228C971.597 730.223 977.797 740.261 982.681 750.647C1021.32 832.831 971.944 931.296 883.411 950.282C864.49 954.339 847.702 952.974 828.557 952.983L763.339 952.993L519.375 952.984L263.964 952.986L193.126 952.988C178.329 952.984 163.012 953.822 148.463 951.632C63.513 938.838 7.90467 851.616 33.54 769.274C40.2849 747.609 51.4999 730.412 62.6132 710.942L101.761 642.483L228.443 420.76L343.835 218.8L376.947 160.664C384.056 148.354 390.805 135.562 399.519 124.341C418.695 99.6474 446.378 81.8568 476.741 74.4385C486.092 72.154 494.37 71.3921 503.801 70.1556ZM518.125 839.061L751.539 839.056L821.203 839.071C832.631 839.069 844.831 839.47 856.138 838.632C869.334 837.654 881.749 823.651 881.265 810.438C881.058 804.804 879.919 800.806 877.005 795.968C869.481 782.377 861.604 768.979 853.943 755.479L795.712 653.478L632.758 368.299L562.18 244.702C555.908 233.764 549.969 222.504 543.442 211.702C532.967 194.369 529.971 184.439 507.243 185.06L505.744 185.104C497.551 188.112 491.793 191.396 487.109 198.996C480.59 209.574 474.341 221.098 468.239 231.938L435.804 289.028L331.592 471.442L209.826 684.324L169.369 755.244C161.237 769.329 152.96 783.151 145.306 797.614C136.98 813.346 144.232 829.713 159.753 836.865C163.398 838.545 166.8 839.094 170.774 839.212C183.703 839.368 196.768 839.272 209.693 839.243L283.442 839.114L518.125 839.061Z"/><path fill="#FF4D01" transform="scale(0.0175781 0.0175781)" d="M504.147 327.161C532.894 322.18 564.817 344.712 568.706 374.124C569.783 382.274 569.102 394.633 569.108 403.257L569.114 468.052L569.105 531.573C569.094 550.498 571.694 568.516 560.601 584.997C550.064 600.652 537.897 608.036 519.656 611.862C484.282 615.485 453.4 588.546 455.053 552.273C455.312 546.601 455.06 539.83 455.061 534.066L455.067 475.358L455.034 407.89C455.033 400.11 455.254 391.92 455.04 384.176C454.234 355.009 475.477 331.545 504.147 327.161Z"/><path fill="#FF4D01" transform="scale(0.0175781 0.0175781)" d="M504.756 668.43C536.149 664.275 564.964 686.364 569.106 717.758C573.249 749.153 551.15 777.959 519.754 782.09C488.374 786.219 459.587 764.134 455.446 732.756C451.306 701.378 473.379 672.582 504.756 668.43Z"/></svg>