<?xml version="1.0" encoding="utf-8" ?><svg xmlns="http://www.w3.org/2000/svg" xmlns:xlink="http://www.w3.org/1999/xlink" width="16" height="16" viewBox="0 0 16 16"><path fill="#FF4D01" transform="scale(0.015625 0.015625)" d="M639.964 136.5L383.967 136.5Q392.5 136.5 392.5 127.967L392.5 213.3Q392.5 204.767 383.967 204.767L639.964 204.767Q631.434 204.767 631.434 213.3L631.434 127.967Q631.434 131.502 633.934 134.002Q636.433 136.5 639.964 136.5L639.964 136.5ZM639.964 34.1002Q733.834 34.1003 733.834 127.967L733.834 213.3Q733.834 307.167 639.964 307.167L383.967 307.167Q345.086 307.167 317.593 279.674Q290.1 252.181 290.1 213.3L290.1 127.967Q290.1 34.1002 383.967 34.1002L639.964 34.1002L639.964 34.1002Z"/><path fill="#FF4D01" transform="scale(0.015625 0.015625)" d="M682.701 119.5L768.031 119.5Q824.584 119.5 864.577 159.487Q904.566 199.484 904.566 256.033L904.566 853.366Q904.566 909.922 864.579 949.909Q824.587 989.901 768.031 989.901L256.033 989.901Q199.477 989.901 159.487 949.907Q119.5 909.927 119.5 853.366L119.5 256.033Q119.5 199.48 159.49 159.49Q199.48 119.5 256.033 119.5L341.367 119.5Q342.624 119.5 343.879 119.561Q345.134 119.623 346.385 119.746Q347.636 119.87 348.879 120.054Q350.123 120.238 351.355 120.484Q352.588 120.729 353.807 121.034Q355.027 121.34 356.229 121.704Q357.432 122.069 358.616 122.493Q359.799 122.916 360.96 123.397Q362.121 123.878 363.258 124.416Q364.394 124.953 365.502 125.545Q366.611 126.138 367.689 126.784Q368.767 127.43 369.812 128.129Q370.857 128.827 371.867 129.576Q372.876 130.324 373.848 131.122Q374.819 131.919 375.751 132.763Q376.682 133.607 377.571 134.496Q378.459 135.385 379.303 136.316Q380.148 137.247 380.945 138.219Q381.742 139.19 382.491 140.2Q383.24 141.21 383.938 142.255Q384.636 143.3 385.282 144.378Q385.929 145.456 386.521 146.564Q387.114 147.673 387.651 148.809Q388.188 149.945 388.669 151.106Q389.15 152.268 389.574 153.451Q389.997 154.634 390.362 155.837Q390.727 157.04 391.032 158.259Q391.338 159.478 391.583 160.711Q391.828 161.944 392.013 163.187Q392.197 164.43 392.32 165.681Q392.443 166.932 392.505 168.188Q392.567 169.443 392.567 170.7Q392.567 171.957 392.505 173.212Q392.443 174.467 392.32 175.718Q392.197 176.969 392.013 178.212Q391.828 179.456 391.583 180.688Q391.338 181.921 391.032 183.14Q390.727 184.36 390.362 185.562Q389.997 186.765 389.574 187.949Q389.15 189.132 388.669 190.293Q388.188 191.454 387.651 192.591Q387.114 193.727 386.521 194.835Q385.929 195.944 385.282 197.022Q384.636 198.1 383.938 199.145Q383.24 200.19 382.491 201.2Q381.742 202.209 380.945 203.181Q380.148 204.152 379.303 205.084Q378.459 206.015 377.571 206.904Q376.682 207.792 375.751 208.636Q374.819 209.481 373.848 210.278Q372.876 211.075 371.867 211.824Q370.857 212.573 369.812 213.271Q368.767 213.969 367.689 214.615Q366.611 215.262 365.502 215.854Q364.394 216.447 363.258 216.984Q362.121 217.521 360.96 218.002Q359.799 218.483 358.616 218.907Q357.432 219.33 356.229 219.695Q355.027 220.06 353.807 220.365Q352.588 220.671 351.355 220.916Q350.123 221.161 348.879 221.346Q347.636 221.53 346.385 221.653Q345.134 221.776 343.879 221.838Q342.624 221.9 341.367 221.9L256.033 221.9Q241.895 221.9 231.897 231.897Q221.9 241.895 221.9 256.033L221.9 853.366Q221.9 867.505 231.9 877.503Q241.896 887.501 256.033 887.501L768.031 887.501Q782.172 887.501 792.171 877.501Q802.166 867.506 802.166 853.366L802.166 256.033Q802.166 241.894 792.173 231.9Q782.172 221.9 768.031 221.9L682.701 221.9Q681.444 221.9 680.189 221.838Q678.933 221.776 677.682 221.653Q676.432 221.53 675.188 221.346Q673.945 221.161 672.712 220.916Q671.479 220.671 670.26 220.365Q669.041 220.06 667.838 219.695Q666.635 219.33 665.452 218.907Q664.269 218.483 663.107 218.002Q661.946 217.521 660.81 216.984Q659.674 216.447 658.565 215.854Q657.457 215.262 656.379 214.615Q655.301 213.969 654.256 213.271Q653.21 212.573 652.201 211.824Q651.191 211.075 650.22 210.278Q649.248 209.481 648.317 208.636Q647.386 207.792 646.497 206.904Q645.608 206.015 644.764 205.084Q643.92 204.152 643.123 203.181Q642.325 202.209 641.576 201.2Q640.828 200.19 640.129 199.145Q639.431 198.1 638.785 197.022Q638.139 195.944 637.546 194.835Q636.954 193.727 636.417 192.591Q635.879 191.454 635.398 190.293Q634.917 189.132 634.494 187.949Q634.07 186.765 633.705 185.562Q633.341 184.36 633.035 183.14Q632.73 181.921 632.484 180.688Q632.239 179.456 632.055 178.212Q631.87 176.969 631.747 175.718Q631.624 174.467 631.562 173.212Q631.501 171.957 631.501 170.7Q631.501 169.443 631.562 168.188Q631.624 166.932 631.747 165.681Q631.87 164.43 632.055 163.187Q632.239 161.944 632.484 160.711Q632.73 159.478 633.035 158.259Q633.341 157.04 633.705 155.837Q634.07 154.634 634.494 153.451Q634.917 152.268 635.398 151.106Q635.879 149.945 636.417 148.809Q636.954 147.673 637.546 146.564Q638.139 145.456 638.785 144.378Q639.431 143.3 640.129 142.255Q640.828 141.21 641.577 140.2Q642.325 139.19 643.123 138.219Q643.92 137.247 644.764 136.316Q645.608 135.385 646.497 134.496Q647.386 133.607 648.317 132.763Q649.248 131.919 650.22 131.122Q651.191 130.324 652.201 129.576Q653.21 128.827 654.255 128.129Q655.301 127.43 656.379 126.784Q657.457 126.138 658.565 125.545Q659.674 124.953 660.81 124.416Q661.946 123.878 663.107 123.397Q664.269 122.916 665.452 122.493Q666.635 122.069 667.838 121.704Q669.041 121.34 670.26 121.034Q671.479 120.729 672.712 120.484Q673.945 120.238 675.188 120.054Q676.432 119.87 677.682 119.746Q678.933 119.623 680.189 119.561Q681.444 119.5 682.701 119.5Z"/><path fill="#FF4D01" transform="scale(0.015625 0.015625)" d="M512 418.1L682.665 418.1Q683.922 418.1 685.177 418.162Q686.433 418.224 687.683 418.347Q688.934 418.47 690.178 418.654Q691.421 418.839 692.654 419.084Q693.886 419.329 695.105 419.635Q696.325 419.94 697.527 420.305Q698.73 420.67 699.914 421.093Q701.097 421.517 702.258 421.998Q703.419 422.479 704.556 423.016Q705.692 423.553 706.8 424.146Q707.909 424.738 708.987 425.385Q710.065 426.031 711.11 426.729Q712.155 427.427 713.165 428.176Q714.174 428.925 715.146 429.722Q716.117 430.519 717.049 431.364Q717.98 432.208 718.869 433.096Q719.757 433.985 720.602 434.916Q721.446 435.848 722.243 436.819Q723.04 437.791 723.789 438.8Q724.538 439.81 725.236 440.855Q725.934 441.9 726.581 442.978Q727.227 444.056 727.819 445.165Q728.412 446.273 728.949 447.409Q729.487 448.546 729.968 449.707Q730.448 450.868 730.872 452.051Q731.295 453.235 731.66 454.438Q732.025 455.64 732.33 456.86Q732.636 458.079 732.881 459.312Q733.126 460.544 733.311 461.788Q733.495 463.031 733.618 464.282Q733.742 465.533 733.803 466.788Q733.865 468.043 733.865 469.3Q733.865 470.557 733.803 471.812Q733.742 473.068 733.618 474.319Q733.495 475.57 733.311 476.813Q733.126 478.056 732.881 479.289Q732.636 480.522 732.33 481.741Q732.025 482.96 731.66 484.163Q731.295 485.366 730.872 486.549Q730.448 487.732 729.967 488.894Q729.487 490.055 728.949 491.191Q728.412 492.327 727.819 493.436Q727.227 494.544 726.581 495.622Q725.934 496.7 725.236 497.745Q724.538 498.79 723.789 499.8Q723.04 500.81 722.243 501.781Q721.446 502.753 720.602 503.684Q719.757 504.615 718.869 505.504Q717.98 506.393 717.049 507.237Q716.117 508.081 715.146 508.878Q714.174 509.676 713.165 510.424Q712.155 511.173 711.11 511.871Q710.065 512.57 708.987 513.216Q707.909 513.862 706.8 514.455Q705.692 515.047 704.556 515.584Q703.419 516.122 702.258 516.603Q701.097 517.084 699.914 517.507Q698.73 517.931 697.527 518.296Q696.325 518.66 695.106 518.966Q693.886 519.271 692.654 519.516Q691.421 519.762 690.178 519.946Q688.934 520.13 687.683 520.254Q686.433 520.377 685.177 520.439Q683.922 520.5 682.665 520.5L512 520.5Q510.743 520.5 509.488 520.439Q508.232 520.377 506.982 520.254Q505.731 520.13 504.487 519.946Q503.244 519.762 502.011 519.516Q500.779 519.271 499.559 518.966Q498.34 518.66 497.137 518.296Q495.935 517.931 494.751 517.507Q493.568 517.084 492.407 516.603Q491.245 516.122 490.109 515.584Q488.973 515.047 487.864 514.455Q486.756 513.862 485.678 513.216Q484.6 512.57 483.555 511.871Q482.51 511.173 481.5 510.424Q480.491 509.676 479.519 508.878Q478.547 508.081 477.616 507.237Q476.685 506.393 475.796 505.504Q474.907 504.615 474.063 503.684Q473.219 502.753 472.422 501.781Q471.624 500.81 470.876 499.8Q470.127 498.79 469.429 497.745Q468.73 496.7 468.084 495.622Q467.438 494.544 466.846 493.436Q466.253 492.327 465.716 491.191Q465.178 490.055 464.697 488.894Q464.216 487.732 463.793 486.549Q463.37 485.366 463.005 484.163Q462.64 482.96 462.334 481.741Q462.029 480.522 461.784 479.289Q461.539 478.056 461.354 476.813Q461.17 475.57 461.047 474.319Q460.923 473.068 460.862 471.813Q460.8 470.557 460.8 469.3Q460.8 468.043 460.862 466.788Q460.923 465.533 461.047 464.282Q461.17 463.031 461.354 461.788Q461.539 460.544 461.784 459.312Q462.029 458.079 462.334 456.86Q462.64 455.64 463.005 454.438Q463.37 453.235 463.793 452.051Q464.216 450.868 464.697 449.707Q465.178 448.546 465.716 447.409Q466.253 446.273 466.846 445.165Q467.438 444.056 468.084 442.978Q468.73 441.9 469.429 440.855Q470.127 439.81 470.876 438.8Q471.624 437.791 472.422 436.819Q473.219 435.848 474.063 434.916Q474.907 433.985 475.796 433.096Q476.685 432.208 477.616 431.364Q478.547 430.519 479.519 429.722Q480.491 428.925 481.5 428.176Q482.51 427.427 483.555 426.729Q484.6 426.031 485.678 425.385Q486.756 424.738 487.864 424.146Q488.973 423.553 490.109 423.016Q491.245 422.479 492.407 421.998Q493.568 421.517 494.751 421.093Q495.935 420.67 497.137 420.305Q498.34 419.94 499.559 419.635Q500.779 419.329 502.011 419.084Q503.244 418.839 504.487 418.654Q505.731 418.47 506.982 418.347Q508.232 418.224 509.488 418.162Q510.743 418.1 512 418.1Z"/><path fill="#FF4D01" transform="scale(0.015625 0.015625)" d="M512 631.501L682.665 631.501Q683.922 631.501 685.177 631.562Q686.433 631.624 687.683 631.747Q688.934 631.871 690.178 632.055Q691.421 632.239 692.654 632.485Q693.886 632.73 695.105 633.035Q696.325 633.341 697.527 633.705Q698.73 634.07 699.914 634.494Q701.097 634.917 702.258 635.398Q703.419 635.879 704.556 636.417Q705.692 636.954 706.8 637.546Q707.909 638.139 708.987 638.785Q710.065 639.431 711.11 640.129Q712.155 640.828 713.165 641.577Q714.174 642.325 715.146 643.123Q716.117 643.92 717.049 644.764Q717.98 645.608 718.869 646.497Q719.757 647.386 720.602 648.317Q721.446 649.248 722.243 650.22Q723.04 651.191 723.789 652.201Q724.538 653.21 725.236 654.255Q725.934 655.301 726.581 656.379Q727.227 657.457 727.819 658.565Q728.412 659.674 728.949 660.81Q729.487 661.946 729.968 663.107Q730.448 664.269 730.872 665.452Q731.295 666.635 731.66 667.838Q732.025 669.041 732.33 670.26Q732.636 671.479 732.881 672.712Q733.126 673.945 733.311 675.188Q733.495 676.432 733.618 677.682Q733.742 678.933 733.803 680.189Q733.865 681.444 733.865 682.701Q733.865 683.958 733.803 685.213Q733.742 686.469 733.618 687.719Q733.495 688.97 733.311 690.213Q733.126 691.457 732.881 692.689Q732.636 693.922 732.33 695.141Q732.025 696.361 731.66 697.563Q731.295 698.766 730.872 699.949Q730.448 701.133 729.967 702.294Q729.487 703.455 728.949 704.592Q728.412 705.728 727.819 706.836Q727.227 707.945 726.581 709.023Q725.934 710.101 725.236 711.146Q724.538 712.191 723.789 713.201Q723.04 714.21 722.243 715.182Q721.446 716.153 720.602 717.085Q719.757 718.016 718.869 718.905Q717.98 719.793 717.049 720.637Q716.117 721.482 715.146 722.279Q714.174 723.076 713.165 723.825Q712.155 724.574 711.11 725.272Q710.065 725.97 708.987 726.616Q707.909 727.263 706.8 727.855Q705.692 728.448 704.556 728.985Q703.419 729.522 702.258 730.003Q701.097 730.484 699.914 730.908Q698.73 731.331 697.527 731.696Q696.325 732.061 695.106 732.366Q693.886 732.672 692.654 732.917Q691.421 733.162 690.178 733.347Q688.934 733.531 687.683 733.654Q686.433 733.777 685.177 733.839Q683.922 733.901 682.665 733.901L512 733.901Q510.743 733.901 509.488 733.839Q508.232 733.777 506.982 733.654Q505.731 733.531 504.487 733.347Q503.244 733.162 502.011 732.917Q500.779 732.672 499.559 732.366Q498.34 732.061 497.137 731.696Q495.935 731.331 494.751 730.908Q493.568 730.484 492.407 730.003Q491.245 729.522 490.109 728.985Q488.973 728.448 487.864 727.855Q486.756 727.263 485.678 726.616Q484.6 725.97 483.555 725.272Q482.51 724.574 481.5 723.825Q480.491 723.076 479.519 722.279Q478.547 721.482 477.616 720.637Q476.685 719.793 475.796 718.905Q474.907 718.016 474.063 717.085Q473.219 716.153 472.422 715.182Q471.624 714.21 470.876 713.201Q470.127 712.191 469.429 711.146Q468.73 710.101 468.084 709.023Q467.438 707.945 466.846 706.836Q466.253 705.728 465.716 704.592Q465.178 703.455 464.697 702.294Q464.216 701.133 463.793 699.949Q463.37 698.766 463.005 697.563Q462.64 696.361 462.334 695.141Q462.029 693.922 461.784 692.689Q461.539 691.457 461.354 690.213Q461.17 688.97 461.047 687.719Q460.923 686.468 460.862 685.213Q460.8 683.958 460.8 682.701Q460.8 681.444 460.862 680.189Q460.923 678.933 461.047 677.682Q461.17 676.432 461.354 675.188Q461.539 673.945 461.784 672.712Q462.029 671.479 462.334 670.26Q462.64 669.041 463.005 667.838Q463.37 666.635 463.793 665.452Q464.216 664.269 464.697 663.107Q465.178 661.946 465.716 660.81Q466.253 659.674 466.846 658.565Q467.438 657.457 468.084 656.379Q468.73 655.301 469.429 654.256Q470.127 653.21 470.876 652.201Q471.624 651.191 472.422 650.22Q473.219 649.248 474.063 648.317Q474.907 647.386 475.796 646.497Q476.685 645.608 477.616 644.764Q478.547 643.92 479.519 643.123Q480.491 642.325 481.5 641.577Q482.51 640.828 483.555 640.129Q484.6 639.431 485.678 638.785Q486.756 638.139 487.864 637.546Q488.973 636.954 490.109 636.417Q491.245 635.879 492.407 635.398Q493.568 634.917 494.751 634.494Q495.935 634.07 497.137 633.705Q498.34 633.341 499.559 633.035Q500.779 632.73 502.011 632.485Q503.244 632.239 504.487 632.055Q505.731 631.871 506.982 631.747Q508.232 631.624 509.488 631.562Q510.743 631.501 512 631.501Z"/><path fill="#FF4D01" transform="scale(0.015625 0.015625)" d="M341.3 418.1L341.812 418.1Q343.069 418.1 344.325 418.162Q345.58 418.224 346.831 418.347Q348.082 418.47 349.325 418.654Q350.568 418.839 351.801 419.084Q353.034 419.329 354.253 419.635Q355.472 419.94 356.675 420.305Q357.878 420.67 359.061 421.093Q360.244 421.517 361.406 421.998Q362.567 422.479 363.703 423.016Q364.839 423.553 365.948 424.146Q367.056 424.738 368.134 425.385Q369.212 426.031 370.257 426.729Q371.302 427.427 372.312 428.176Q373.322 428.925 374.293 429.722Q375.265 430.519 376.196 431.364Q377.127 432.208 378.016 433.096Q378.905 433.985 379.749 434.916Q380.593 435.848 381.39 436.819Q382.188 437.791 382.936 438.8Q383.685 439.81 384.383 440.855Q385.082 441.9 385.728 442.978Q386.374 444.056 386.967 445.165Q387.559 446.273 388.096 447.409Q388.634 448.546 389.115 449.707Q389.596 450.868 390.019 452.051Q390.443 453.235 390.808 454.438Q391.172 455.64 391.478 456.86Q391.783 458.079 392.028 459.312Q392.274 460.544 392.458 461.788Q392.643 463.031 392.766 464.282Q392.889 465.533 392.951 466.788Q393.012 468.043 393.012 469.3Q393.012 470.557 392.951 471.812Q392.889 473.068 392.766 474.319Q392.643 475.57 392.458 476.813Q392.274 478.056 392.028 479.289Q391.783 480.522 391.478 481.741Q391.172 482.96 390.808 484.163Q390.443 485.366 390.019 486.549Q389.596 487.732 389.115 488.894Q388.634 490.055 388.096 491.191Q387.559 492.327 386.967 493.436Q386.374 494.544 385.728 495.622Q385.082 496.7 384.383 497.745Q383.685 498.79 382.936 499.8Q382.188 500.81 381.39 501.781Q380.593 502.753 379.749 503.684Q378.905 504.615 378.016 505.504Q377.127 506.393 376.196 507.237Q375.265 508.081 374.293 508.878Q373.322 509.676 372.312 510.424Q371.302 511.173 370.257 511.871Q369.212 512.57 368.134 513.216Q367.056 513.862 365.948 514.455Q364.839 515.047 363.703 515.584Q362.567 516.122 361.406 516.603Q360.244 517.084 359.061 517.507Q357.878 517.931 356.675 518.296Q355.472 518.66 354.253 518.966Q353.034 519.271 351.801 519.516Q350.568 519.762 349.325 519.946Q348.082 520.13 346.831 520.254Q345.58 520.377 344.324 520.439Q343.069 520.5 341.812 520.5L341.3 520.5Q340.043 520.5 338.788 520.439Q337.533 520.377 336.282 520.254Q335.031 520.13 333.788 519.946Q332.544 519.762 331.312 519.516Q330.079 519.271 328.86 518.966Q327.64 518.66 326.438 518.296Q325.235 517.931 324.051 517.507Q322.868 517.084 321.707 516.603Q320.546 516.122 319.409 515.584Q318.273 515.047 317.165 514.455Q316.056 513.862 314.978 513.216Q313.9 512.57 312.855 511.871Q311.81 511.173 310.8 510.424Q309.791 509.676 308.819 508.878Q307.848 508.081 306.916 507.237Q305.985 506.393 305.096 505.504Q304.208 504.615 303.364 503.684Q302.519 502.753 301.722 501.781Q300.925 500.81 300.176 499.8Q299.427 498.79 298.729 497.745Q298.031 496.7 297.384 495.622Q296.738 494.544 296.146 493.436Q295.553 492.327 295.016 491.191Q294.479 490.055 293.998 488.894Q293.517 487.732 293.093 486.549Q292.67 485.366 292.305 484.163Q291.94 482.96 291.635 481.741Q291.329 480.522 291.084 479.289Q290.839 478.056 290.654 476.813Q290.47 475.57 290.347 474.319Q290.224 473.068 290.162 471.813Q290.1 470.557 290.1 469.3Q290.1 468.043 290.162 466.788Q290.224 465.533 290.347 464.282Q290.47 463.031 290.654 461.788Q290.839 460.544 291.084 459.312Q291.329 458.079 291.635 456.86Q291.94 455.64 292.305 454.438Q292.67 453.235 293.093 452.051Q293.517 450.868 293.998 449.707Q294.479 448.546 295.016 447.409Q295.553 446.273 296.146 445.165Q296.738 444.056 297.384 442.978Q298.031 441.9 298.729 440.855Q299.427 439.81 300.176 438.8Q300.925 437.791 301.722 436.819Q302.519 435.848 303.364 434.916Q304.208 433.985 305.096 433.096Q305.985 432.208 306.916 431.364Q307.848 430.519 308.819 429.722Q309.791 428.925 310.8 428.176Q311.81 427.427 312.855 426.729Q313.9 426.031 314.978 425.385Q316.056 424.738 317.165 424.146Q318.273 423.553 319.409 423.016Q320.546 422.479 321.707 421.998Q322.868 421.517 324.051 421.093Q325.235 420.67 326.438 420.305Q327.64 419.94 328.86 419.635Q330.079 419.329 331.312 419.084Q332.544 418.839 333.788 418.654Q335.031 418.47 336.282 418.347Q337.533 418.224 338.788 418.162Q340.043 418.1 341.3 418.1Z"/><path fill="#FF4D01" transform="scale(0.015625 0.015625)" d="M341.3 631.501L341.812 631.501Q343.069 631.501 344.325 631.562Q345.58 631.624 346.831 631.747Q348.082 631.871 349.325 632.055Q350.568 632.239 351.801 632.485Q353.034 632.73 354.253 633.035Q355.472 633.341 356.675 633.705Q357.878 634.07 359.061 634.494Q360.244 634.917 361.406 635.398Q362.567 635.879 363.703 636.417Q364.839 636.954 365.948 637.546Q367.056 638.139 368.134 638.785Q369.212 639.431 370.257 640.129Q371.302 640.828 372.312 641.577Q373.322 642.325 374.293 643.123Q375.265 643.92 376.196 644.764Q377.127 645.608 378.016 646.497Q378.905 647.386 379.749 648.317Q380.593 649.248 381.39 650.22Q382.188 651.191 382.936 652.201Q383.685 653.21 384.383 654.255Q385.082 655.301 385.728 656.379Q386.374 657.457 386.967 658.565Q387.559 659.674 388.096 660.81Q388.634 661.946 389.115 663.107Q389.596 664.269 390.019 665.452Q390.443 666.635 390.808 667.838Q391.172 669.041 391.478 670.26Q391.783 671.479 392.028 672.712Q392.274 673.945 392.458 675.188Q392.643 676.432 392.766 677.682Q392.889 678.933 392.951 680.189Q393.012 681.444 393.012 682.701Q393.012 683.958 392.951 685.213Q392.889 686.469 392.766 687.719Q392.643 688.97 392.458 690.213Q392.274 691.457 392.028 692.689Q391.783 693.922 391.478 695.141Q391.172 696.361 390.808 697.563Q390.443 698.766 390.019 699.949Q389.596 701.133 389.115 702.294Q388.634 703.455 388.096 704.592Q387.559 705.728 386.967 706.836Q386.374 707.945 385.728 709.023Q385.082 710.101 384.383 711.146Q383.685 712.191 382.936 713.201Q382.188 714.21 381.39 715.182Q380.593 716.153 379.749 717.085Q378.905 718.016 378.016 718.905Q377.127 719.793 376.196 720.637Q375.265 721.482 374.293 722.279Q373.322 723.076 372.312 723.825Q371.302 724.574 370.257 725.272Q369.212 725.97 368.134 726.616Q367.056 727.263 365.948 727.855Q364.839 728.448 363.703 728.985Q362.567 729.522 361.406 730.003Q360.244 730.484 359.061 730.908Q357.878 731.331 356.675 731.696Q355.472 732.061 354.253 732.366Q353.034 732.672 351.801 732.917Q350.568 733.162 349.325 733.347Q348.082 733.531 346.831 733.654Q345.58 733.777 344.324 733.839Q343.069 733.901 341.812 733.901L341.3 733.901Q340.043 733.901 338.788 733.839Q337.533 733.777 336.282 733.654Q335.031 733.531 333.788 733.347Q332.544 733.162 331.312 732.917Q330.079 732.672 328.86 732.366Q327.64 732.061 326.438 731.696Q325.235 731.331 324.051 730.908Q322.868 730.484 321.707 730.003Q320.546 729.522 319.409 728.985Q318.273 728.448 317.165 727.855Q316.056 727.263 314.978 726.616Q313.9 725.97 312.855 725.272Q311.81 724.574 310.8 723.825Q309.791 723.076 308.819 722.279Q307.848 721.482 306.916 720.637Q305.985 719.793 305.096 718.905Q304.208 718.016 303.364 717.085Q302.519 716.153 301.722 715.182Q300.925 714.21 300.176 713.201Q299.427 712.191 298.729 711.146Q298.031 710.101 297.384 709.023Q296.738 707.945 296.146 706.836Q295.553 705.728 295.016 704.592Q294.479 703.455 293.998 702.294Q293.517 701.133 293.093 699.949Q292.67 698.766 292.305 697.563Q291.94 696.361 291.635 695.141Q291.329 693.922 291.084 692.689Q290.839 691.457 290.654 690.213Q290.47 688.97 290.347 687.719Q290.224 686.468 290.162 685.213Q290.1 683.958 290.1 682.701Q290.1 681.444 290.162 680.189Q290.224 678.933 290.347 677.682Q290.47 676.432 290.654 675.188Q290.839 673.945 291.084 672.712Q291.329 671.479 291.635 670.26Q291.94 669.041 292.305 667.838Q292.67 666.635 293.093 665.452Q293.517 664.269 293.998 663.107Q294.479 661.946 295.016 660.81Q295.553 659.674 296.146 658.565Q296.738 657.457 297.384 656.379Q298.031 655.301 298.729 654.256Q299.427 653.21 300.176 652.201Q300.925 651.191 301.722 650.22Q302.519 649.248 303.364 648.317Q304.208 647.386 305.096 646.497Q305.985 645.608 306.916 644.764Q307.848 643.92 308.819 643.123Q309.791 642.325 310.8 641.577Q311.81 640.828 312.855 640.129Q313.9 639.431 314.978 638.785Q316.056 638.139 317.165 637.546Q318.273 636.954 319.409 636.417Q320.546 635.879 321.707 635.398Q322.868 634.917 324.051 634.494Q325.235 634.07 326.438 633.705Q327.64 633.341 328.86 633.035Q330.079 632.73 331.312 632.485Q332.544 632.239 333.788 632.055Q335.031 631.871 336.282 631.747Q337.533 631.624 338.788 631.562Q340.043 631.501 341.3 631.501Z"/></svg>