<?xml version="1.0" encoding="utf-8" ?><svg xmlns="http://www.w3.org/2000/svg" xmlns:xlink="http://www.w3.org/1999/xlink" width="815" height="210" viewBox="0 0 815 210"><path fill="#FE3E00" transform="matrix(1.63 0 0 1.62791 -6.10352e-05 0)" d="M2.82466 6.09775C7.37066 5.8548 12.8372 5.9951 17.4364 6.00156L42.5216 6.02581L77.6555 6.01701C83.9197 6.01628 90.1885 6.03112 96.4519 6.05577C101.194 6.07443 105.808 7.77825 109.871 7.79684C133.701 7.90589 157.574 7.57576 181.401 7.90448C189.497 8.15064 197.923 7.41651 205.96 8.41893C212.024 9.1752 218.365 11.9896 222.827 16.0045C233.836 25.9098 232.993 40.3003 229.066 53.3255C228.63 54.7714 228.401 56.6292 227.919 58.0317C227.882 58.2206 227.842 58.4751 227.784 58.6586C221.631 78.1265 219.696 103.521 200.657 115.367C189.843 122.083 177.76 121.52 165.656 121.774C152.748 122.044 140.32 119.254 133.202 107.366C126.202 95.6755 130.452 83.498 133.592 71.3708L138.772 51.1979C139.606 47.9419 140.445 44.3316 141.774 41.2806C136.507 41.3944 130.261 41.0779 125.287 39.1447C123.856 46.4511 121.364 55.8233 117.918 62.4715L117.353 62.1271C117.144 60.2077 116.092 58.4422 115.039 56.8329C111.141 50.8738 104.214 48.0746 97.4271 47.0006C95.1165 46.635 92.8089 46.6462 90.5587 46.2054C91.7118 42.9429 92.3526 41.4314 89.3836 39.1547C84.8969 38.6507 76.9778 38.8704 72.1927 38.8717L42.2289 38.8867C30.3251 38.8862 16.3154 39.7561 7.94341 29.2503C2.58347 22.5243 2.29195 14.3363 2.82466 6.09775ZM172.417 50.1461C169.819 61.0521 166.688 71.8265 164.256 82.7697C163.408 86.3335 165.685 87.7328 168.976 87.8903C186.646 88.736 186.264 88.3812 190.57 72.1012L196.591 48.8529C197.673 44.9278 197.687 42.9618 193.438 41.6228C189.157 41.0571 184.235 41.2545 179.917 41.5521C174.601 42.9537 173.628 45.0255 172.417 50.1461Z"/><path fill="#6F8396" transform="matrix(1.63 0 0 1.62791 -6.10352e-05 0)" d="M196.591 48.8529C197.863 48.6672 201.225 48.6514 202.798 48.6022C209.071 48.4064 217.008 47.2689 222.442 51.0414C224.037 52.1485 225.483 54.2716 226.878 55.4577C227.052 56.6604 227.013 57.1685 227.919 58.0317C227.882 58.2206 227.842 58.4751 227.784 58.6586C221.631 78.1265 219.696 103.521 200.657 115.367C189.843 122.083 177.76 121.52 165.656 121.774C152.748 122.044 140.32 119.254 133.202 107.366C126.202 95.6755 130.452 83.498 133.592 71.3708L138.772 51.1979C139.774 51.3109 140.773 51.3377 141.779 51.3222C151.999 51.1642 162.193 50.1736 172.417 50.1461C169.819 61.0521 166.688 71.8265 164.256 82.7697C163.408 86.3335 165.685 87.7328 168.976 87.8903C186.646 88.736 186.264 88.3812 190.57 72.1012L196.591 48.8529Z"/><path fill="#515B65" transform="matrix(1.63 0 0 1.62791 -6.10352e-05 0)" d="M141.774 41.2806L167.1 41.2116C169.903 41.2122 177.613 41.0578 179.917 41.5521C174.601 42.9537 173.628 45.0255 172.417 50.1461C162.193 50.1736 151.999 51.1642 141.779 51.3222C140.773 51.3377 139.774 51.3109 138.772 51.1979C139.606 47.9419 140.445 44.3316 141.774 41.2806Z"/><path fill="#515B65" transform="matrix(1.63 0 0 1.62791 -6.10352e-05 0)" d="M89.3836 39.1547C91.0967 38.7679 94.8965 39.1909 96.6973 39.4767C108.424 41.3381 119.49 48.89 117.353 62.1271C117.144 60.2077 116.092 58.4422 115.039 56.8329C111.141 50.8738 104.214 48.0746 97.4271 47.0006C95.1165 46.635 92.8089 46.6462 90.5587 46.2054C91.7118 42.9429 92.3526 41.4314 89.3836 39.1547Z"/><path fill="#515B65" transform="matrix(1.63 0 0 1.62791 -6.10352e-05 0)" d="M193.438 41.6228C196.324 41.2508 199.418 41.3338 202.326 41.543C211.14 42.1771 226.114 43.9838 226.878 55.4577C225.483 54.2716 224.037 52.1485 222.442 51.0414C217.008 47.2689 209.071 48.4064 202.798 48.6022C201.225 48.6514 197.863 48.6672 196.591 48.8529C197.673 44.9278 197.687 42.9618 193.438 41.6228Z"/><path fill="#6F8396" transform="matrix(1.63 0 0 1.62791 -6.10352e-05 0)" d="M90.5587 46.2054C92.8089 46.6462 95.1165 46.635 97.4271 47.0006C104.214 48.0746 111.141 50.8738 115.039 56.8329C116.092 58.4422 117.144 60.2077 117.353 62.1271L117.918 62.4715C117.502 63.6761 115.635 66.52 114.862 67.5582C110.081 73.9832 102.006 79.0646 94.0498 80.2283C96.0222 82.8734 99.9121 90.1083 101.743 93.282C106.547 101.609 111.668 110.039 116.121 118.524C104.432 118.728 91.8875 118.535 80.1551 118.483C78.8334 117.026 73.8323 107.914 72.5663 105.738L63.5582 90.2399C62.2879 88.029 59.8312 84.0229 58.9835 81.7617C58.6957 83.4387 58.186 85.5812 57.7061 87.2351C54.7232 97.5143 52.6471 108.461 49.5927 118.675C43.0528 118.941 36.2919 118.63 29.7282 118.74C25.4979 118.811 21.0761 118.78 16.8454 118.659C17.7422 114.132 19.1578 109.026 20.3186 104.51L26.5129 80.6262L31.6705 60.3942C32.549 56.9391 33.4615 52.7898 34.5271 49.4579C51.1782 49.6864 68.0131 49.535 84.6662 49.4039C87.1042 49.3847 89.0683 48.0399 90.5587 46.2054Z"/><path fill="#FE3E00" transform="matrix(1.63 0 0 1.62791 -6.10352e-05 0)" d="M479.662 36.3549C480.445 36.2724 481.291 36.3332 481.998 36.3163C495.006 35.9981 494.911 44.5846 492.739 54.7251C491.486 60.5751 489.934 66.0508 486.501 71.1069C483.073 76.1568 479.556 76.5494 474.028 77.4534C468.075 77.7089 459.286 77.7398 459.091 69.7171C458.876 60.9275 461.916 48.8448 467.401 41.746C470.336 37.9465 475.131 36.7299 479.662 36.3549ZM472.419 72.5094C475.737 72.4256 478.9 72.3752 481.292 69.6657C485.88 64.4695 490.031 48.9813 487.178 42.7708C484.176 41.3782 483.566 41.4678 480.229 41.3646C477.095 41.4782 473.358 41.8811 471.271 44.662C466.851 50.5524 464.688 59.7054 464.407 66.9499C464.221 71.7331 468.699 72.3975 472.419 72.5094Z"/><path fill="#FE3E00" transform="matrix(1.63 0 0 1.62791 -6.10352e-05 0)" d="M424.233 36.5704C428.698 36.3832 443.922 35.8524 446.361 38.525C452.199 44.9235 446.042 58.7701 437.318 60.1578C438.718 63.4506 440.487 73.1033 441.573 77.1965L436.486 77.2532C435.576 74.7571 434.877 71.2761 434.266 68.625C433.679 66.1213 433.198 63.5489 432.917 60.9929C431.097 61.0218 424.486 60.5715 423.51 60.8955C422.586 62.4687 419.846 74.7904 419.272 77.1712C417.659 77.2387 415.83 77.219 414.197 77.2399C414.609 73.9393 423.184 38.5573 424.233 36.5704ZM424.403 56.425C428.695 55.6769 434.541 57.5699 438.641 55.4414C439.798 54.4406 440.996 53.3603 441.578 51.8782C446.97 38.1388 436.452 42.486 428.06 41.4827C427.207 46.1958 425.599 51.6734 424.403 56.425Z"/><path fill="#FE3E00" transform="matrix(1.63 0 0 1.62791 -6.10352e-05 0)" d="M253.99 36.5628C266.905 37.7648 283.595 31.6888 275.254 53.2441C273.899 56.747 270.323 59.597 266.657 60.1647C266.602 60.2795 266.537 60.4158 266.462 60.5735C267.608 64.92 269.379 73.1297 270.477 77.1935L265.229 77.2561C264.442 74.229 263.771 71.1086 262.999 68.054C262.489 65.7305 262.079 63.3398 261.651 60.9963C259.491 61.0352 254.086 60.9577 252.089 60.7403C251.511 64.1996 249.164 73.8027 248.039 77.0545C246.164 77.2729 244.986 77.1867 243.133 76.9931C243.372 74.7618 244.634 70.1065 245.208 67.7817L249.685 50.0212C250.707 45.9758 251.645 41.6722 252.719 37.6261C252.911 36.9046 253.392 36.8193 253.99 36.5628ZM265.528 56.4385C266.215 56.0726 267.384 55.492 267.994 55.0813C271.312 51.9516 272.75 47.0625 271.295 42.6903C266.352 40.6464 259.303 42.2449 256.93 41.3425C256.674 44.7272 252.937 53.4088 254.542 55.4942C254.945 55.6739 255.072 55.6406 255.503 55.6193C258.989 55.448 262.18 55.4717 265.528 56.4385Z"/><path fill="#FE3E00" transform="matrix(1.63 0 0 1.62791 -6.10352e-05 0)" d="M362.194 36.591C363.913 36.5785 365.534 36.5219 367.251 36.4413L357.214 76.363C356.607 77.6141 354.281 77.267 353.052 77.2555C351.503 73.8251 342.648 50.0534 341.564 49.1947C341.419 49.0802 341.115 49.1628 340.928 49.1826C339.114 50.6676 338.424 55.3864 337.781 57.6782C336.001 64.0325 334.794 70.9607 332.757 77.207L327.945 77.2277C328.329 74.2684 336.821 38.9965 338.237 36.5332C340.116 36.4421 341.64 36.1075 342.491 38.0928C346.595 47.6635 349.995 57.5991 354.088 67.1794C356.31 60.8028 357.673 53.5153 359.36 46.9461C360.037 44.3079 361.064 38.8015 362.194 36.591Z"/><path fill="#FE3E00" transform="matrix(1.63 0 0 1.62791 -6.10352e-05 0)" d="M302.993 36.8406C306.971 36.1871 316.153 37.2935 320.848 36.9248C320.519 38.4627 320.132 39.9961 319.757 41.5242C317.307 41.5187 314.538 41.6761 312.034 41.692C308.858 41.7123 304.145 41.5718 301.126 42.215C298.073 45.1059 297.833 48.8088 296.893 52.6528C296.733 53.3069 296.569 53.9682 296.598 54.6425C297.996 54.737 300.132 54.6096 301.657 54.626L314.041 54.7578C313.635 55.8987 313.292 57.8617 313.037 59.1019C310.12 59.458 297.361 59.6778 295.019 59.2066C294.626 61.6871 293.725 64.9424 293.108 67.4371C292.821 68.8341 292.517 70.1555 293.008 71.5176C295.073 73.4228 307.964 71.6738 311.707 72.4309C312.011 73.0902 311.069 76.1088 310.803 76.9185C307.543 77.0023 286.565 79.4982 287.138 73.3893C288.007 64.1266 291.527 53.5781 293.82 44.4255C295.059 39.4806 298.265 37.5324 302.993 36.8406Z"/><path fill="#FE3E00" transform="matrix(1.63 0 0 1.62791 -6.10352e-05 0)" d="M380.74 36.5451C390.124 36.2891 400.662 36.5953 410.226 36.5026C410.026 37.5457 409.435 41.1736 408.789 41.3354C406.508 41.9062 398.518 41.62 396.459 41.4253C396.109 44.5002 394.894 48.6668 394.15 51.6985C392.902 56.7866 391.573 61.8617 390.368 66.9638C389.472 70.3804 388.636 73.7653 387.806 77.1986C386.501 77.2681 384.48 77.4187 383.278 77.0532C381.896 75.2942 390.821 47.1241 391.101 41.7462C390.9 41.6504 380.688 41.7075 379.341 41.6264C379.542 39.9876 379.686 37.8168 380.74 36.5451Z"/><path fill="#515B65" transform="matrix(1.63 0 0 1.62791 -6.10352e-05 0)" d="M435.159 87.8705L435.719 88.2645C436.531 89.776 432.487 105.407 431.438 106.355C430.071 106.692 430.473 105.631 429.253 105.814C427.104 106.135 426.37 106.639 424.102 106.501C421.649 105.328 422.278 101.515 422.868 99.286C424.264 94.0163 427.535 92.7042 432.511 93.969C432.868 91.2851 432.814 89.5708 435.159 87.8705ZM424.844 104.039L427.814 104.487C428.672 104.198 429.502 103.939 430.319 103.549C430.75 100.929 431.517 98.1076 431.854 95.567L428.464 95.5764C424.923 96.684 424.939 100.909 424.844 104.039Z"/><path fill="#515B65" transform="matrix(1.63 0 0 1.62791 -6.10352e-05 0)" d="M443.715 105.818C435.184 108.757 433.742 103.148 437.133 96.4662C438.581 93.4243 443.81 92.3488 446.484 94.0522C449.342 95.8717 446.395 102.652 445.04 104.684L443.715 105.818ZM440.902 104.497C441.988 104.251 442.837 104.043 443.385 102.977C444.314 101.168 446.272 97.499 444.467 95.8365C443.506 95.5936 442.661 95.7537 441.678 95.8652C438.695 96.6289 436.454 102.411 438.858 104.15C439.701 104.371 440.016 104.459 440.902 104.497Z"/><path fill="#312F34" transform="matrix(1.63 0 0 1.62791 -6.10352e-05 0)" d="M443.715 105.818C442.995 105.753 442.753 105.738 442.064 105.481L442.091 105.096C442.82 104.25 443.844 102.897 444.908 102.677C445.353 103.451 445.148 103.632 445.04 104.684L443.715 105.818Z"/><path fill="#4B4A4E" transform="matrix(1.63 0 0 1.62791 -6.10352e-05 0)" d="M336.911 94.0738C345.719 91.6543 345.998 97.1236 342.974 103.733C340.432 107.555 333.08 108.228 332.922 103.108C332.819 99.7875 333.57 95.4762 336.911 94.0738ZM340.59 103.478C341.015 101.17 343.41 97.8477 341.513 95.717C340.227 95.1452 338.858 95.5772 337.5 95.8861C335.508 98.9933 331.854 105.98 339.171 104.232C339.512 104.15 340.266 103.68 340.59 103.478Z"/><path fill="#515B65" transform="matrix(1.63 0 0 1.62791 -6.10352e-05 0)" d="M336.911 94.0738C345.719 91.6543 345.998 97.1236 342.974 103.733C342.713 102.937 342.599 102.615 341.767 102.539C341.207 102.891 341.049 103.003 340.59 103.478C341.015 101.17 343.41 97.8477 341.513 95.717C340.227 95.1452 338.858 95.5772 337.5 95.8861L338.324 94.7761L338.155 94.4063L336.911 94.0738Z"/><defs><linearGradient id="gradient_0" gradientUnits="userSpaceOnUse" x1="398.60803" y1="98.664284" x2="405.62939" y2="100.54626"><stop offset="0" stop-color="#6E6F70"/><stop offset="1" stop-color="#46424C"/></linearGradient></defs><path fill="url(#gradient_0)" transform="matrix(1.63 0 0 1.62791 -6.10352e-05 0)" d="M406.04 106.043C404.849 106.503 403.722 106.539 402.491 106.683C395.025 107.556 396.979 98.771 399.796 95.1451C401.058 93.5203 403.88 93.3728 405.774 93.2741C408.188 93.6199 409.459 94.5906 409.076 97.2853C408.447 101.71 403.148 101.47 399.642 101.289C399.695 102.513 399.496 102.637 400.103 103.465C402.262 104.312 403.487 103.455 406.137 104.437L406.58 105.008C406.456 105.755 406.586 105.497 406.04 106.043ZM405.104 95.1889C402.03 95.9946 401.98 95.6293 400.461 98.6484C401.581 99.6884 405.167 99.2403 406.473 97.9162C407.134 96.1797 406.643 95.8065 405.104 95.1889Z"/><path fill="#4B4A4E" transform="matrix(1.63 0 0 1.62791 -6.10352e-05 0)" d="M405.774 93.2741C408.188 93.6199 409.459 94.5906 409.076 97.2853C408.447 101.71 403.148 101.47 399.642 101.289C400.667 100.29 402.125 101.063 402.898 100.195C401.443 99.3355 400.463 99.6348 399.992 98.9905L400.239 98.9142L400.063 98.8299L400.461 98.6484C401.581 99.6884 405.167 99.2403 406.473 97.9162C407.134 96.1797 406.643 95.8065 405.104 95.1889C405.83 94.9754 406.04 95.2217 407.098 94.7863L407.224 94.4271C406.684 93.8331 406.43 93.6877 405.774 93.2741Z"/><path fill="#312F34" transform="matrix(1.63 0 0 1.62791 -6.10352e-05 0)" d="M406.137 104.437L406.58 105.008C406.456 105.755 406.586 105.497 406.04 106.043C405.913 106.01 403.28 105.783 403.164 105.795L403.053 105.807L403.193 105.751L402.388 105.707L402.357 105.591C403.681 105.471 405.223 105.466 406.137 104.437Z"/><defs><linearGradient id="gradient_1" gradientUnits="userSpaceOnUse" x1="418.72058" y1="101.20651" x2="411.51675" y2="97.80114"><stop offset="0" stop-color="#57585D"/><stop offset="1" stop-color="#707071"/></linearGradient></defs><path fill="url(#gradient_1)" transform="matrix(1.63 0 0 1.62791 -6.10352e-05 0)" d="M412.288 94.6237C422.385 90.2541 423.697 98.3502 419.105 100.516C417.209 101.04 413.96 101.367 411.993 101.265C411.999 102.485 411.8 102.622 412.358 103.495C413.469 104.111 415.925 104.34 417.335 104.559C418.215 104.624 418.172 104.489 418.822 104.979L418.841 105.466C418.154 106.008 418.459 105.863 417.565 106.013C407.469 109.026 408.538 100.364 412.288 94.6237ZM418.49 95.3545C415.171 95.2075 414.329 95.6345 412.809 98.6753C414.222 99.2993 417.871 99.2963 418.924 97.6652C419.039 96.7427 418.793 96.2266 418.49 95.3545Z"/><path fill="#6F8396" transform="matrix(1.63 0 0 1.62791 -6.10352e-05 0)" d="M418.49 95.3545C418.723 95.3818 419.145 95.358 419.254 95.5766C420.617 98.3306 417.815 99.1277 417.109 100.265C417.836 100.536 418.338 100.502 419.105 100.516C417.209 101.04 413.96 101.367 411.993 101.265C411.984 100.592 412.22 99.0579 412.809 98.6753C414.222 99.2993 417.871 99.2963 418.924 97.6652C419.039 96.7427 418.793 96.2266 418.49 95.3545Z"/><path fill="#4B4A4E" transform="matrix(1.63 0 0 1.62791 -6.10352e-05 0)" d="M417.335 104.559C418.215 104.624 418.172 104.489 418.822 104.979L418.841 105.466C418.154 106.008 418.459 105.863 417.565 106.013C416.418 105.863 413.584 105.969 412.626 105.393C413.595 105.373 417.141 105.366 417.75 104.778L417.335 104.559Z"/><path fill="#4B4A4E" transform="matrix(1.63 0 0 1.62791 -6.10352e-05 0)" d="M303.288 105.982C300.535 106.6 294.982 107.441 294.7 103.425C294.534 101.061 295.284 97.7136 296.69 95.7864C298.404 93.439 303.196 92.6436 305.574 94.2563C305.933 94.5016 306.126 94.9081 306.147 95.3227C306.451 101.207 302.477 100.647 298.112 101.023C297.632 101.064 297.381 101.397 297.07 101.737C296.911 102.469 296.636 103.226 296.993 103.853C298.009 104.776 302.053 104.701 303.764 104.962L303.675 105.698L303.288 105.982ZM297.431 99.1639C298.402 99.2064 299.782 99.2233 300.694 99.4236C302.666 99.2814 303.802 99.1532 304.182 96.9207C304.065 96.1849 304.009 96.0623 303.468 95.5518C302.644 95.1541 302.234 95.2325 301.329 95.2892C298.656 95.9795 298.493 96.7518 297.431 99.1639Z"/><path fill="#0D0A10" transform="matrix(1.63 0 0 1.62791 -6.10352e-05 0)" d="M303.764 104.962L303.675 105.698L303.288 105.982C302.031 105.853 298.102 106.288 297.6 105.271C297.881 105.113 302.871 105.085 303.764 104.962Z"/><path fill="#515B65" transform="matrix(1.63 0 0 1.62791 -6.10352e-05 0)" d="M268.503 103.489C268.565 102.593 268.954 100.618 269.204 99.751C270.559 95.0684 269.952 88.9802 276.422 89.2047C277.999 89.2235 281.364 89.2081 282.732 90.0123L282.643 90.0887L282.905 90.349L282.466 90.1047L282.196 90.6549L281.027 90.7572C274.197 91.8727 274.057 89.1048 272.258 97.2429C273.898 97.1002 277.38 97.2535 279.007 97.5313L279.715 97.6664L279.843 98.0045C279.4 98.484 279.014 98.76 278.274 98.8064C276.782 99.0666 273.269 99.1382 271.691 99.0916C271.45 100.694 270.391 104.843 269.737 106.307C269.433 106.514 269.116 106.494 268.751 106.513L268.419 106.156C268.173 105.267 268.37 104.403 268.503 103.489Z"/><path fill="#4B4A4E" transform="matrix(1.63 0 0 1.62791 -6.10352e-05 0)" d="M276.422 89.2047C277.999 89.2235 281.364 89.2081 282.732 90.0123L282.643 90.0887L282.905 90.349L282.466 90.1047L282.196 90.6549L281.027 90.7572C279.7 90.5488 274.992 90.7428 274.3 90.2065C274.703 89.7211 275.743 89.4576 276.422 89.2047Z"/><path fill="#4B4A4E" transform="matrix(1.63 0 0 1.62791 -6.10352e-05 0)" d="M279.007 97.5313L279.715 97.6664L279.843 98.0045C279.4 98.484 279.014 98.76 278.274 98.8064C277.35 98.7426 276.16 98.7333 275.347 98.3425L275.401 98.0987C276.537 97.639 277.785 97.6183 279.007 97.5313Z"/><path fill="#4B4A4E" transform="matrix(1.63 0 0 1.62791 -6.10352e-05 0)" d="M268.503 103.489C269.971 104.265 269.724 104.669 269.737 106.307C269.433 106.514 269.116 106.494 268.751 106.513L268.419 106.156C268.173 105.267 268.37 104.403 268.503 103.489Z"/><defs><linearGradient id="gradient_2" gradientUnits="userSpaceOnUse" x1="383.93372" y1="101.83706" x2="379.21985" y2="90.533875"><stop offset="0" stop-color="#4E4F55"/><stop offset="1" stop-color="#6B6B6C"/></linearGradient></defs><path fill="url(#gradient_2)" transform="matrix(1.63 0 0 1.62791 -6.10352e-05 0)" d="M378.339 99.2654C378.392 100.816 377.144 105.335 376.053 106.471L375.644 106.4C374.366 104.097 376.99 92.5368 378.726 90.3213C380.097 88.5731 387.819 88.6939 389.411 90.0007L389.373 90.4089C387.701 91.4886 382.962 91.2585 380.78 91.2619C380.044 93.1744 379.849 94.9463 378.995 96.9407C378.347 97.4049 377.955 98.5506 378.339 99.2654Z"/><path fill="#4B4A4E" fill-opacity="0.98823529" transform="matrix(1.63 0 0 1.62791 -6.10352e-05 0)" d="M312.077 87.9139C312.234 88.0386 312.519 88.4624 312.651 88.6456C312.993 91.0022 310.139 100.247 309.512 102.965C309.049 104.971 311.087 103.954 312.171 105.541C311.695 106.184 311.732 106.043 310.966 106.389C309.732 106.386 308.523 106.522 307.688 105.464C306.59 103.2 309.946 91.8286 310.914 89.0904C311.027 88.7721 311.776 88.1451 312.077 87.9139Z"/><path fill="#4B4A4E" transform="matrix(1.63 0 0 1.62791 -6.10352e-05 0)" d="M396.534 93.5464L397.247 93.5727C397.939 93.9379 398.029 94.163 398.366 94.8386C397.571 96.179 394.492 95.7525 392.172 97.2609C391.009 99.8734 389.969 105.509 388.882 106.71L388.115 106.277C387.335 104.739 389.46 94.7604 391.155 93.6783C391.871 93.7871 391.751 93.8616 392.318 94.4832C392.946 94.6584 395.507 93.7916 396.534 93.5464Z"/><path fill="#4B4A4E" transform="matrix(1.63 0 0 1.62791 -6.10352e-05 0)" d="M368.41 93.5438C369.013 93.5838 368.814 93.5425 369.333 93.9394L369.348 94.6376C367.975 97.0293 364.913 95.4635 363.666 97.257C361.961 99.7118 362.663 104.788 359.994 106.863C359.981 106.845 359.443 106.134 359.445 106.083C359.602 102.71 360.206 95.9617 362.822 93.7019C362.818 93.7059 363.844 94.2818 364.091 94.3258C365.34 94.5489 367.143 93.8527 368.41 93.5438Z"/><defs><linearGradient id="gradient_3" gradientUnits="userSpaceOnUse" x1="327.4169" y1="98.157486" x2="321.82846" y2="96.719933"><stop offset="0" stop-color="#5D5F66"/><stop offset="1" stop-color="#797574"/></linearGradient></defs><path fill="url(#gradient_3)" transform="matrix(1.63 0 0 1.62791 -6.10352e-05 0)" d="M327.353 101.558C326.746 103.763 326.62 104.916 325.192 106.681L324.847 106.678C324.115 105.203 325.243 101.81 325.189 100.079C325.13 98.1722 321.905 89.8221 323.896 88.7804C326.481 89.6787 325.936 96.4196 327.444 97.8928C328.052 98.9716 327.013 100.202 327.353 101.558Z"/><path fill="#515B65" transform="matrix(1.63 0 0 1.62791 -6.10352e-05 0)" d="M287.307 106.005C278.803 108.017 281.353 103.378 282.566 97.6431C282.843 96.3323 283.688 94.1475 284.917 93.585L285.084 93.7462C285.579 95.3543 284.015 101.538 283.647 103.909C284.998 104.187 285.808 104.242 287.161 104.33C287.304 104.914 287.549 105.518 287.307 106.005Z"/><path fill="#515B65" transform="matrix(1.63 0 0 1.62791 -6.10352e-05 0)" d="M347.827 96.1688C348.275 97.0442 348.06 96.9545 348.819 97.2859L349.904 96.9292C349.305 99.0614 348.804 101.939 348.357 104.157C350.159 104.352 353.496 104.654 354.481 102.712C354.541 103.854 354.649 105.026 354.449 106.151C351.843 103.47 342.32 113.471 347.827 96.1688Z"/><defs><linearGradient id="gradient_4" gradientUnits="userSpaceOnUse" x1="457.78751" y1="102.00388" x2="457.74384" y2="93.993217"><stop offset="0" stop-color="#514E50" stop-opacity="0.98823529"/><stop offset="1" stop-color="#6C6E70"/></linearGradient></defs><path fill="url(#gradient_4)" transform="matrix(1.63 0 0 1.62791 -6.10352e-05 0)" d="M452.435 93.816C455.107 95.0484 457.062 92.0624 460.474 94.3717C460.041 95.3932 460.374 97.6646 460.475 98.8826C460.222 100.1 459.317 103.477 458.855 104.571L458.48 103.629C457.79 103.256 458.09 103.305 457.247 103.513C457.298 102.454 458.406 97.5436 458.631 95.7879C455.87 96.0769 453.82 95.2495 452.681 98.0974C452.14 96.837 453.058 95.9677 452.435 93.816Z"/><path fill="#515B65" transform="matrix(1.63 0 0 1.62791 -6.10352e-05 0)" d="M290.012 101.291C290.001 99.3116 291.009 94.534 292.973 93.5395C294.415 94.34 291.947 103.522 291.385 105.327C291.033 106.125 291.237 105.971 290.586 106.308C288.698 105.816 289.04 105.58 287.307 106.005C287.549 105.518 287.304 104.914 287.161 104.33C289.504 103.461 289.271 103.58 290.012 101.291Z"/><path fill="#4B4A4E" transform="matrix(1.63 0 0 1.62791 -6.10352e-05 0)" d="M290.012 101.291L290.475 101.602L290.469 101.677C290.372 103.087 291.081 103.564 291.385 105.327C291.033 106.125 291.237 105.971 290.586 106.308C288.698 105.816 289.04 105.58 287.307 106.005C287.549 105.518 287.304 104.914 287.161 104.33C289.504 103.461 289.271 103.58 290.012 101.291Z"/><path fill="#515B65" transform="matrix(1.63 0 0 1.62791 -6.10352e-05 0)" d="M464.968 93.486C466.992 93.2588 468.913 93.3635 469.022 95.9616C469.145 98.895 467.839 103.932 466.129 106.292L465.682 106.344C463.961 104.513 467.689 97.9883 466.708 96.0745L465.706 95.6354C465.484 95.5471 464.661 94.6408 464.497 94.3608L464.968 93.486Z"/><path fill="#515B65" transform="matrix(1.63 0 0 1.62791 -6.10352e-05 0)" d="M452.681 98.0974C452.181 99.9792 451.045 105.933 449.184 106.596C447.954 104.904 450.229 94.8892 451.875 93.6586L452.435 93.816C453.058 95.9677 452.14 96.837 452.681 98.0974Z"/><path fill="#515B65" transform="matrix(1.63 0 0 1.62791 -6.10352e-05 0)" d="M354.502 102.498C354.973 100.318 355.985 94.6654 357.752 93.4327L358.121 93.5219C358.226 93.7319 358.567 94.3285 358.527 94.5053C357.909 97.1947 357.099 102.928 356.128 105.331C355.739 106.187 355.976 105.954 355.221 106.363C355.031 106.315 354.608 106.22 354.449 106.151C354.649 105.026 354.541 103.854 354.481 102.712L354.502 102.498Z"/><path fill="#4B4A4E" transform="matrix(1.63 0 0 1.62791 -6.10352e-05 0)" d="M354.502 102.498C355.534 102.717 355.238 102.509 355.81 103.242C355.883 104.087 355.933 104.502 356.128 105.331C355.739 106.187 355.976 105.954 355.221 106.363C355.031 106.315 354.608 106.22 354.449 106.151C354.649 105.026 354.541 103.854 354.481 102.712L354.502 102.498Z"/><path fill="#4B4A4E" transform="matrix(1.63 0 0 1.62791 -6.10352e-05 0)" d="M327.444 97.8928C329.029 95.2068 332.037 89.9318 334.952 89.1319L335.352 89.2672C335.047 90.8477 328.302 98.807 327.353 101.558C327.013 100.202 328.052 98.9716 327.444 97.8928Z"/><path fill="#515B65" transform="matrix(1.63 0 0 1.62791 -6.10352e-05 0)" d="M378.339 99.2654C377.955 98.5506 378.347 97.4049 378.995 96.9407C381.153 96.986 384.701 96.9307 386.571 97.8315L386.557 98.1466C383.915 99.5268 380.812 98.9459 378.339 99.2654Z"/><path fill="#6F8396" transform="matrix(1.63 0 0 1.62791 -6.10352e-05 0)" d="M460.474 94.3717C461.254 94.6806 464.039 93.7463 464.968 93.486L464.497 94.3608C464.661 94.6408 465.484 95.5471 465.706 95.6354C462.77 96.4972 461.483 95.7418 460.475 98.8826C460.374 97.6646 460.041 95.3932 460.474 94.3717Z"/><path fill="#515B65" fill-opacity="0.98823529" transform="matrix(1.63 0 0 1.62791 -6.10352e-05 0)" d="M347.827 96.1688C348.087 95.2759 348.26 94.2771 349.01 93.7564L349.558 93.6498C350.57 94.6269 350.133 95.6317 349.904 96.9292L348.819 97.2859C348.06 96.9545 348.275 97.0442 347.827 96.1688Z"/><path fill="#0D0A10" transform="matrix(1.63 0 0 1.62791 -6.10352e-05 0)" d="M305.732 101.286C305.951 102.005 305.964 101.719 305.646 102.437C304.296 103.184 300.91 102.943 299.323 102.904L299.093 102.676C299.483 101.176 303.584 102.675 305.732 101.286Z"/><path fill="#312F34" transform="matrix(1.63 0 0 1.62791 -6.10352e-05 0)" d="M457.247 103.513C458.09 103.305 457.79 103.256 458.48 103.629L458.855 104.571C458.671 105.487 458.591 106.038 457.7 106.352L457.244 105.959C456.804 105.202 457.078 104.381 457.247 103.513Z"/><path fill="#0D0A10" fill-opacity="0.90196079" transform="matrix(1.63 0 0 1.62791 -6.10352e-05 0)" d="M416.099 102.096C417.406 101.915 419.37 101.87 420.538 102.526L420.584 102.882C419.413 102.52 417.459 103.446 416.199 102.604L416.099 102.096Z"/></svg>