<?xml version="1.0" encoding="utf-8" ?><svg xmlns="http://www.w3.org/2000/svg" xmlns:xlink="http://www.w3.org/1999/xlink" width="390" height="390" viewBox="0 0 390 390"><path fill="#FE3300" transform="matrix(0.78 0 0 0.78 -0.00012207 0)" d="M17.3447 140.245C24.4811 139.663 35.432 140.159 42.8442 140.156L91.4598 139.976L253.127 140.395L344.401 140.412L368.32 140.386C375.267 140.328 382.209 139.916 389.09 140.906C415.203 144.662 437.447 163.623 438.883 191.127C439.536 203.637 437.602 214.361 433.96 226.333C432.859 230.111 432.057 234.158 430.754 237.856C430.572 240.299 428.736 246.012 428.071 248.623L424.002 265.025C416.66 294.213 407.187 328.599 379.936 345.517C361.434 357.004 337.06 358.172 315.909 358.044C306.188 357.986 297.298 358.208 287.714 355.902C272.519 352.246 259.704 344.527 251.354 331.164C237.14 308.415 245.263 285.564 251.474 261.926C254.824 249.174 258.163 236.449 261.246 223.548C261.572 222.554 261.863 221.319 262.124 220.292C263.531 214.763 265.11 209.391 266.972 203.996C265.458 204.07 253.982 203.865 253.768 204.057C250.484 217.32 245.122 240.456 237.738 251.638C237.667 250.642 237.807 249.168 237.872 248.133C237.585 247.051 236.563 245.149 236.121 243.949C230.265 228.056 213.089 221.028 197.442 219.074C193.694 218.606 189.792 218.516 185.966 218.162C187.084 216.128 188.083 212.351 188.776 210.018C187.6 206.895 185.888 205.662 183.22 204.051L182.873 203.999C177.049 203.17 164.406 203.747 157.864 203.752L102.309 203.746C85.9833 203.74 70.1523 204.685 54.2503 201.289C28.7839 195.85 15.521 174.906 16.9844 149.661C17.1602 146.628 16.9459 143.327 17.3447 140.245ZM325.905 220.777C324.437 225.064 323.434 230.305 322.309 234.77L316.191 258.599L311.598 276.247C310.836 279.217 309.811 282.829 309.404 285.85C309.003 289.594 313.184 293.129 316.601 293.622C326.855 295.1 340.258 295.833 349.622 290.843C354.74 288.116 356.023 280.513 357.346 275.374L360.901 261.511C364.506 247.419 368.617 232.499 371.884 218.402C374.271 210.725 373.357 206.992 365.584 204.6C365.521 204.586 365.458 204.572 365.395 204.558L365.078 204.496C361.458 203.755 344.201 203.856 340.466 204.572C328.884 207.83 329.126 210.159 325.905 220.777Z"/><path fill="#6F8396" transform="matrix(0.78 0 0 0.78 -0.00012207 0)" d="M371.884 218.402C377.305 218.37 382.24 218.117 387.648 217.886C399.411 217.382 414.576 215.813 423.679 224.759C426.056 227.094 429.472 232.542 430.165 235.709C430.329 236.534 430.395 237.084 430.754 237.856C430.572 240.299 428.736 246.012 428.071 248.623L424.002 265.025C416.66 294.213 407.187 328.599 379.936 345.517C361.434 357.004 337.06 358.172 315.909 358.044C306.188 357.986 297.298 358.208 287.714 355.902C272.519 352.246 259.704 344.527 251.354 331.164C237.14 308.415 245.263 285.564 251.474 261.926C254.824 249.174 258.163 236.449 261.246 223.548C282.645 222.619 304.6 221.321 325.905 220.777C324.437 225.064 323.434 230.305 322.309 234.77L316.191 258.599L311.598 276.247C310.836 279.217 309.811 282.829 309.404 285.85C309.003 289.594 313.184 293.129 316.601 293.622C326.855 295.1 340.258 295.833 349.622 290.843C354.74 288.116 356.023 280.513 357.346 275.374L360.901 261.511C364.506 247.419 368.617 232.499 371.884 218.402Z"/><path fill="#465665" transform="matrix(0.78 0 0 0.78 -0.00012207 0)" d="M266.972 203.996C276.664 203.646 287.272 203.911 297.068 203.87L322.96 203.74C326.713 203.744 337.403 203.493 340.466 204.572C328.884 207.83 329.126 210.159 325.905 220.777C304.6 221.321 282.645 222.619 261.246 223.548C261.572 222.554 261.863 221.319 262.124 220.292C263.531 214.763 265.11 209.391 266.972 203.996Z"/><path fill="#465665" transform="matrix(0.78 0 0 0.78 -0.00012207 0)" d="M183.22 204.051C185.998 203.303 189.968 203.832 192.856 204.162C211.367 206.278 232.458 214.577 237.598 234.43C238.743 238.851 239.052 243.678 237.872 248.133C237.585 247.051 236.563 245.149 236.121 243.949C230.265 228.056 213.089 221.028 197.442 219.074C193.694 218.606 189.792 218.516 185.966 218.162C187.084 216.128 188.083 212.351 188.776 210.018C187.6 206.895 185.888 205.662 183.22 204.051Z"/><path fill="#465665" transform="matrix(0.78 0 0 0.78 -0.00012207 0)" d="M365.584 204.6C368.222 203.734 374.519 203.97 377.538 204.182C394.909 205.404 422.33 206.585 429.119 226.241C430.248 229.508 430.253 232.343 430.165 235.709C429.472 232.542 426.056 227.094 423.679 224.759C414.576 215.813 399.411 217.382 387.648 217.886C382.24 218.117 377.305 218.37 371.884 218.402C374.271 210.725 373.357 206.992 365.584 204.6Z"/><path fill="#6F8396" transform="matrix(0.78 0 0 0.78 -0.00012207 0)" d="M185.966 218.162C189.792 218.516 193.694 218.606 197.442 219.074C213.089 221.028 230.265 228.056 236.121 243.949C236.563 245.149 237.585 247.051 237.872 248.133C237.807 249.168 237.667 250.642 237.738 251.638C237.039 253.564 236.047 255.032 234.923 256.729C225.965 270.248 209.329 280.727 193.31 283.693C196.849 288.794 201.702 297.65 204.905 303.209L226.547 340.847C228.67 344.466 234.014 354.337 236.178 357.161C232.982 357.448 229.087 357.131 225.808 357.096C220.74 357.043 215.692 357.015 210.622 357.031L183.086 357.214C177.81 357.234 171.203 357.46 166.068 356.754C163.045 353.168 160.05 347.378 157.648 343.196L145.401 321.892L132.853 300.28C130.66 296.52 127.11 290.782 125.391 286.971C124.675 292.091 122.754 299.404 121.402 304.473L115.661 325.983L110.854 344.845C110.161 347.564 108.564 354.691 107.351 356.921C105.147 358.248 52.5431 356.227 44.3283 357.525L43.9952 357.581C44.3162 355.545 45.225 352.468 45.7669 350.376L48.879 338.304L59.1604 298.434L71.5452 250.147C73.4007 242.88 75.8397 231.889 78.0546 225.112C79.8812 223.673 98.883 224.216 102.881 224.217L147.237 224.229C155.409 224.23 163.768 224.341 171.922 224.102C177.936 223.926 181.933 222.629 185.966 218.162Z"/></svg>